<svg xmlns="http://www.w3.org/2000/svg" xmlns:xlink="http://www.w3.org/1999/xlink" width="500" zoomAndPan="magnify" viewBox="0 0 375 82.499998" height="110" preserveAspectRatio="xMidYMid meet" version="1.0"><defs><filter x="0%" y="0%" width="100%" xlink:type="simple" xlink:actuate="onLoad" height="100%" id="id1" xlink:show="other"><feColorMatrix values="0 0 0 0 1 0 0 0 0 1 0 0 0 0 1 0 0 0 1 0" color-interpolation-filters="sRGB"/></filter><g><g id="id2"/></g><clipPath id="id3"><path d="M 9 0 L 115 0 L 115 82.003906 L 9 82.003906 Z M 9 0 " clip-rule="nonzero"/></clipPath><mask id="id4"><g filter="url(#id1)"><rect x="-37.5" width="450" fill="rgb(0%, 0%, 0%)" y="-8.25" height="98.999997" fill-opacity="0.698"/></g></mask><clipPath id="id5"><path d="M 42 0 L 47 0 L 47 82.003906 L 42 82.003906 Z M 42 0 " clip-rule="nonzero"/></clipPath><clipPath id="id6"><path d="M 0.328125 39 L 10 39 L 10 43 L 0.328125 43 Z M 0.328125 39 " clip-rule="nonzero"/></clipPath><clipPath id="id7"><path d="M 54 10 L 105.191406 10 L 105.191406 42 L 54 42 Z M 54 10 " clip-rule="nonzero"/></clipPath><clipPath id="id8"><rect x="0" width="106" y="0" height="83"/></clipPath></defs><g clip-path="url(#id3)"><g mask="url(#id4)"><g transform="matrix(1, 0, 0, 1, 9, 0)"><g clip-path="url(#id8)"><g clip-path="url(#id5)"><path fill="rgb(0%, 29.019165%, 67.83905%)" d="M 44.5 0.0625 C 43.601562 0.0625 42.863281 0.804688 42.863281 1.707031 L 42.863281 80.628906 C 42.863281 81.535156 43.601562 82.273438 44.5 82.273438 C 45.398438 82.273438 46.136719 81.535156 46.136719 80.628906 L 46.136719 1.707031 C 46.136719 0.804688 45.398438 0.0625 44.5 0.0625 Z M 44.5 0.0625 " fill-opacity="1" fill-rule="nonzero"/></g><path fill="rgb(0%, 29.019165%, 67.83905%)" d="M 33.046875 8.285156 C 32.148438 8.285156 31.414062 9.023438 31.414062 9.929688 L 31.414062 16.011719 C 31.414062 16.917969 32.148438 17.65625 33.046875 17.65625 C 33.949219 17.65625 34.683594 16.917969 34.683594 16.011719 L 34.683594 9.929688 C 34.683594 9.023438 33.949219 8.285156 33.046875 8.285156 Z M 33.046875 8.285156 " fill-opacity="1" fill-rule="nonzero"/><path fill="rgb(0%, 29.019165%, 67.83905%)" d="M 21.925781 18.5625 C 22.25 19.382812 23.234375 19.792969 24.050781 19.464844 C 24.867188 19.136719 25.277344 18.148438 24.949219 17.328125 L 22.660156 11.738281 C 22.332031 10.914062 21.351562 10.503906 20.535156 10.832031 C 19.714844 11.160156 19.304688 12.148438 19.632812 12.96875 C 19.632812 12.96875 21.925781 18.476562 21.925781 18.5625 Z M 21.925781 18.5625 " fill-opacity="1" fill-rule="nonzero"/><path fill="rgb(0%, 29.019165%, 67.83905%)" d="M 14.152344 24.480469 C 14.808594 25.136719 15.871094 25.136719 16.445312 24.480469 C 17.097656 23.820312 17.097656 22.835938 16.445312 22.179688 L 12.191406 17.902344 C 11.535156 17.246094 10.554688 17.246094 9.898438 17.902344 C 9.246094 18.5625 9.246094 19.546875 9.898438 20.203125 C 9.898438 20.203125 14.152344 24.480469 14.152344 24.480469 Z M 14.152344 24.480469 " fill-opacity="1" fill-rule="nonzero"/><path fill="rgb(0%, 29.019165%, 67.83905%)" d="M 3.683594 30.726562 C 3.683594 30.726562 9.246094 33.03125 9.246094 33.03125 C 10.0625 33.359375 11.046875 32.949219 11.371094 32.125 C 11.699219 31.304688 11.289062 30.316406 10.472656 29.988281 L 4.910156 27.6875 C 4.09375 27.355469 3.109375 27.769531 2.785156 28.589844 C 2.457031 29.414062 2.867188 30.398438 3.683594 30.726562 Z M 3.683594 30.726562 " fill-opacity="1" fill-rule="nonzero"/><g clip-path="url(#id6)"><path fill="rgb(0%, 29.019165%, 67.83905%)" d="M 9.65625 41.167969 C 9.65625 40.265625 8.917969 39.523438 8.019531 39.523438 L 1.964844 39.523438 C 1.066406 39.523438 0.328125 40.265625 0.328125 41.167969 C 0.328125 42.074219 1.066406 42.8125 1.964844 42.8125 L 8.019531 42.8125 C 8.917969 42.8125 9.65625 42.074219 9.65625 41.167969 Z M 9.65625 41.167969 " fill-opacity="1" fill-rule="nonzero"/></g><path fill="rgb(0%, 29.019165%, 67.83905%)" d="M 11.371094 50.210938 C 11.046875 49.390625 10.0625 48.976562 9.246094 49.308594 L 3.683594 51.609375 C 2.867188 51.9375 2.457031 52.925781 2.785156 53.746094 C 3.109375 54.570312 4.09375 54.980469 4.910156 54.652344 L 10.472656 52.347656 C 11.371094 52.019531 11.78125 51.035156 11.371094 50.210938 Z M 11.371094 50.210938 " fill-opacity="1" fill-rule="nonzero"/><path fill="rgb(0%, 29.019165%, 67.83905%)" d="M 14.152344 57.855469 L 9.898438 62.132812 C 9.246094 62.789062 9.246094 63.777344 9.898438 64.433594 C 10.554688 65.089844 11.617188 65.089844 12.191406 64.433594 L 16.445312 60.160156 C 17.097656 59.5 17.097656 58.515625 16.445312 57.855469 C 15.789062 57.199219 14.808594 57.199219 14.152344 57.855469 Z M 14.152344 57.855469 " fill-opacity="1" fill-rule="nonzero"/><path fill="rgb(0%, 29.019165%, 67.83905%)" d="M 24.050781 62.953125 C 23.234375 62.625 22.25 63.035156 21.925781 63.859375 L 19.632812 69.449219 C 19.304688 70.269531 19.714844 71.257812 20.535156 71.585938 C 21.351562 71.914062 22.332031 71.503906 22.660156 70.683594 L 24.949219 65.089844 C 25.277344 64.269531 24.949219 63.28125 24.050781 62.953125 Z M 24.050781 62.953125 " fill-opacity="1" fill-rule="nonzero"/><path fill="rgb(0%, 29.019165%, 67.83905%)" d="M 33.046875 64.679688 C 32.148438 64.679688 31.414062 65.421875 31.414062 66.324219 L 31.414062 72.40625 C 31.414062 73.3125 32.148438 74.050781 33.046875 74.050781 C 33.949219 74.050781 34.683594 73.3125 34.683594 72.40625 L 34.683594 66.324219 C 34.683594 65.421875 33.949219 64.679688 33.046875 64.679688 Z M 33.046875 64.679688 " fill-opacity="1" fill-rule="nonzero"/><path fill="rgb(0%, 29.019165%, 67.83905%)" d="M 33.046875 26.699219 C 33.949219 26.699219 34.683594 25.960938 34.683594 25.054688 C 34.683594 24.152344 33.949219 23.410156 33.046875 23.410156 C 23.316406 23.410156 15.378906 31.386719 15.378906 41.167969 C 15.378906 50.953125 23.316406 58.925781 33.046875 58.925781 C 33.949219 58.925781 34.683594 58.1875 34.683594 57.28125 C 34.683594 56.378906 33.949219 55.636719 33.046875 55.636719 C 25.113281 55.636719 18.652344 49.144531 18.652344 41.167969 C 18.652344 33.195312 25.113281 26.699219 33.046875 26.699219 Z M 33.046875 26.699219 " fill-opacity="1" fill-rule="nonzero"/><g clip-path="url(#id7)"><path fill="rgb(0%, 29.019165%, 67.83905%)" d="M 105.027344 32.042969 C 104.867188 29 103.230469 26.371094 100.695312 24.972656 C 100.285156 19.957031 96.195312 16.09375 91.289062 16.09375 C 90.550781 16.09375 89.734375 16.175781 88.996094 16.421875 C 87.28125 12.640625 83.515625 10.09375 79.261719 10.09375 C 79.019531 10.09375 78.855469 10.09375 78.691406 10.09375 C 74.4375 10.339844 70.675781 13.136719 69.203125 17.164062 C 69.039062 17.164062 68.792969 17.164062 68.628906 17.164062 C 63.886719 17.164062 59.960938 20.78125 59.304688 25.546875 C 56.113281 26.945312 54.398438 29.660156 54.398438 33.277344 C 54.398438 37.960938 57.261719 41.085938 61.675781 41.332031 C 62.25 41.332031 65.195312 41.332031 82.207031 41.332031 C 86.625 41.332031 92.023438 41.332031 98.566406 41.332031 C 98.730469 41.332031 98.894531 41.332031 99.140625 41.25 C 102.738281 39.769531 105.191406 36.070312 105.027344 32.042969 Z M 98.160156 37.878906 C 94.722656 37.878906 62.902344 37.878906 61.675781 37.878906 C 57.914062 37.714844 57.503906 34.507812 57.503906 33.113281 C 57.503906 31.054688 58.242188 29.660156 59.714844 28.753906 C 59.960938 29.164062 60.203125 29.578125 60.449219 29.824219 C 61.023438 30.480469 62.085938 30.5625 62.742188 29.988281 C 63.394531 29.414062 63.476562 28.34375 62.902344 27.6875 C 62.660156 27.355469 62.332031 26.863281 62.332031 26.042969 C 62.742188 22.753906 65.277344 20.285156 68.464844 20.285156 C 68.464844 20.285156 68.546875 20.285156 68.546875 20.285156 C 68.628906 21.191406 68.957031 21.929688 69.203125 22.425781 C 69.613281 23.164062 70.675781 23.492188 71.410156 23.082031 C 72.230469 22.671875 72.472656 21.683594 72.066406 20.863281 C 71.902344 20.535156 71.65625 19.875 71.820312 18.972656 C 72.636719 15.765625 75.417969 13.464844 78.691406 13.300781 C 78.855469 13.300781 78.9375 13.300781 79.101562 13.300781 C 82.125 13.300781 84.90625 15.273438 85.96875 18.148438 C 85.96875 18.230469 86.132812 18.726562 86.132812 18.808594 C 86.214844 19.546875 86.050781 20.039062 85.890625 20.371094 C 85.480469 21.191406 85.726562 22.179688 86.542969 22.589844 C 87.28125 23 88.34375 22.753906 88.75 21.929688 C 89.078125 21.355469 89.324219 20.617188 89.40625 19.546875 C 89.980469 19.382812 90.46875 19.300781 91.042969 19.300781 C 94.3125 19.300781 97.011719 22.011719 97.175781 25.464844 C 97.175781 25.546875 97.175781 26.125 97.175781 26.207031 C 97.09375 26.945312 96.847656 27.4375 96.605469 27.6875 C 96.03125 28.34375 96.113281 29.414062 96.769531 29.988281 C 97.421875 30.5625 98.484375 30.480469 99.058594 29.824219 C 99.304688 29.496094 99.628906 29.082031 99.875 28.589844 C 100.859375 29.496094 101.429688 30.808594 101.511719 32.207031 C 101.839844 34.671875 100.449219 36.976562 98.160156 37.878906 Z M 98.160156 37.878906 " fill-opacity="1" fill-rule="nonzero"/></g><path fill="rgb(0%, 29.019165%, 67.83905%)" d="M 60.859375 44.128906 C 59.960938 44.128906 59.222656 44.867188 59.222656 45.773438 L 59.222656 46.183594 C 59.222656 47.085938 59.960938 47.828125 60.859375 47.828125 C 61.757812 47.828125 62.496094 47.085938 62.496094 46.183594 L 62.496094 45.773438 C 62.496094 44.867188 61.757812 44.128906 60.859375 44.128906 Z M 60.859375 44.128906 " fill-opacity="1" fill-rule="nonzero"/><path fill="rgb(0%, 29.019165%, 67.83905%)" d="M 60.859375 50.375 C 59.960938 50.375 59.222656 51.117188 59.222656 52.019531 L 59.222656 52.84375 C 59.222656 53.746094 59.960938 54.488281 60.859375 54.488281 C 61.757812 54.488281 62.496094 53.746094 62.496094 52.84375 L 62.496094 52.019531 C 62.496094 51.117188 61.757812 50.375 60.859375 50.375 Z M 60.859375 50.375 " fill-opacity="1" fill-rule="nonzero"/><path fill="rgb(0%, 29.019165%, 67.83905%)" d="M 60.859375 57.035156 C 59.960938 57.035156 59.222656 57.773438 59.222656 58.679688 L 59.222656 59.5 C 59.222656 60.40625 59.960938 61.144531 60.859375 61.144531 C 61.757812 61.144531 62.496094 60.40625 62.496094 59.5 L 62.496094 58.679688 C 62.496094 57.773438 61.757812 57.035156 60.859375 57.035156 Z M 60.859375 57.035156 " fill-opacity="1" fill-rule="nonzero"/><path fill="rgb(0%, 29.019165%, 67.83905%)" d="M 60.859375 63.695312 C 59.960938 63.695312 59.222656 64.433594 59.222656 65.339844 L 59.222656 66.160156 C 59.222656 67.066406 59.960938 67.804688 60.859375 67.804688 C 61.757812 67.804688 62.496094 67.066406 62.496094 66.160156 L 62.496094 65.339844 C 62.496094 64.433594 61.757812 63.695312 60.859375 63.695312 Z M 60.859375 63.695312 " fill-opacity="1" fill-rule="nonzero"/><path fill="rgb(0%, 29.019165%, 67.83905%)" d="M 60.859375 70.351562 C 59.960938 70.351562 59.222656 71.09375 59.222656 71.996094 L 59.222656 72.40625 C 59.222656 73.3125 59.960938 74.050781 60.859375 74.050781 C 61.757812 74.050781 62.496094 73.3125 62.496094 72.40625 L 62.496094 71.996094 C 62.496094 71.09375 61.757812 70.351562 60.859375 70.351562 Z M 60.859375 70.351562 " fill-opacity="1" fill-rule="nonzero"/><path fill="rgb(0%, 29.019165%, 67.83905%)" d="M 67.402344 44.128906 C 66.503906 44.128906 65.765625 44.867188 65.765625 45.773438 L 65.765625 46.183594 C 65.765625 47.085938 66.503906 47.828125 67.402344 47.828125 C 68.300781 47.828125 69.039062 47.085938 69.039062 46.183594 L 69.039062 45.773438 C 69.039062 44.867188 68.300781 44.128906 67.402344 44.128906 Z M 67.402344 44.128906 " fill-opacity="1" fill-rule="nonzero"/><path fill="rgb(0%, 29.019165%, 67.83905%)" d="M 67.402344 55.964844 C 66.503906 55.964844 65.765625 56.707031 65.765625 57.609375 L 65.765625 58.351562 C 65.765625 59.253906 66.503906 59.996094 67.402344 59.996094 C 68.300781 59.996094 69.039062 59.253906 69.039062 58.351562 L 69.039062 57.609375 C 69.039062 56.707031 68.300781 55.964844 67.402344 55.964844 Z M 67.402344 55.964844 " fill-opacity="1" fill-rule="nonzero"/><path fill="rgb(0%, 29.019165%, 67.83905%)" d="M 67.402344 49.882812 C 66.503906 49.882812 65.765625 50.621094 65.765625 51.527344 L 65.765625 52.265625 C 65.765625 53.171875 66.503906 53.910156 67.402344 53.910156 C 68.300781 53.910156 69.039062 53.171875 69.039062 52.265625 L 69.039062 51.527344 C 69.039062 50.539062 68.300781 49.882812 67.402344 49.882812 Z M 67.402344 49.882812 " fill-opacity="1" fill-rule="nonzero"/><path fill="rgb(0%, 29.019165%, 67.83905%)" d="M 67.402344 62.050781 C 66.503906 62.050781 65.765625 62.789062 65.765625 63.695312 L 65.765625 64.105469 C 65.765625 65.007812 66.503906 65.75 67.402344 65.75 C 68.300781 65.75 69.039062 65.007812 69.039062 64.105469 L 69.039062 63.695312 C 69.039062 62.789062 68.300781 62.050781 67.402344 62.050781 Z M 67.402344 62.050781 " fill-opacity="1" fill-rule="nonzero"/><path fill="rgb(0%, 29.019165%, 67.83905%)" d="M 73.945312 44.128906 C 73.046875 44.128906 72.3125 44.867188 72.3125 45.773438 L 72.3125 46.183594 C 72.3125 47.085938 73.046875 47.828125 73.945312 47.828125 C 74.847656 47.828125 75.582031 47.085938 75.582031 46.183594 L 75.582031 45.773438 C 75.582031 44.867188 74.847656 44.128906 73.945312 44.128906 Z M 73.945312 44.128906 " fill-opacity="1" fill-rule="nonzero"/><path fill="rgb(0%, 29.019165%, 67.83905%)" d="M 73.945312 50.375 C 73.046875 50.375 72.3125 51.117188 72.3125 52.019531 L 72.3125 52.84375 C 72.3125 53.746094 73.046875 54.488281 73.945312 54.488281 C 74.847656 54.488281 75.582031 53.746094 75.582031 52.84375 L 75.582031 52.019531 C 75.582031 51.117188 74.847656 50.375 73.945312 50.375 Z M 73.945312 50.375 " fill-opacity="1" fill-rule="nonzero"/><path fill="rgb(0%, 29.019165%, 67.83905%)" d="M 73.945312 57.035156 C 73.046875 57.035156 72.3125 57.773438 72.3125 58.679688 L 72.3125 59.5 C 72.3125 60.40625 73.046875 61.144531 73.945312 61.144531 C 74.847656 61.144531 75.582031 60.40625 75.582031 59.5 L 75.582031 58.679688 C 75.582031 57.773438 74.847656 57.035156 73.945312 57.035156 Z M 73.945312 57.035156 " fill-opacity="1" fill-rule="nonzero"/><path fill="rgb(0%, 29.019165%, 67.83905%)" d="M 73.945312 63.695312 C 73.046875 63.695312 72.3125 64.433594 72.3125 65.339844 L 72.3125 66.160156 C 72.3125 67.066406 73.046875 67.804688 73.945312 67.804688 C 74.847656 67.804688 75.582031 67.066406 75.582031 66.160156 L 75.582031 65.339844 C 75.582031 64.433594 74.847656 63.695312 73.945312 63.695312 Z M 73.945312 63.695312 " fill-opacity="1" fill-rule="nonzero"/><path fill="rgb(0%, 29.019165%, 67.83905%)" d="M 73.945312 70.351562 C 73.046875 70.351562 72.3125 71.09375 72.3125 71.996094 L 72.3125 72.40625 C 72.3125 73.3125 73.046875 74.050781 73.945312 74.050781 C 74.847656 74.050781 75.582031 73.3125 75.582031 72.40625 L 75.582031 71.996094 C 75.582031 71.09375 74.847656 70.351562 73.945312 70.351562 Z M 73.945312 70.351562 " fill-opacity="1" fill-rule="nonzero"/><path fill="rgb(0%, 29.019165%, 67.83905%)" d="M 80.492188 44.128906 C 79.589844 44.128906 78.855469 44.867188 78.855469 45.773438 L 78.855469 46.183594 C 78.855469 47.085938 79.589844 47.828125 80.492188 47.828125 C 81.390625 47.828125 82.125 47.085938 82.125 46.183594 L 82.125 45.773438 C 82.125 44.867188 81.390625 44.128906 80.492188 44.128906 Z M 80.492188 44.128906 " fill-opacity="1" fill-rule="nonzero"/><path fill="rgb(0%, 29.019165%, 67.83905%)" d="M 80.492188 49.882812 C 79.589844 49.882812 78.855469 50.621094 78.855469 51.527344 L 78.855469 52.265625 C 78.855469 53.171875 79.589844 53.910156 80.492188 53.910156 C 81.390625 53.910156 82.125 53.171875 82.125 52.265625 L 82.125 51.527344 C 82.125 50.539062 81.390625 49.882812 80.492188 49.882812 Z M 80.492188 49.882812 " fill-opacity="1" fill-rule="nonzero"/><path fill="rgb(0%, 29.019165%, 67.83905%)" d="M 80.492188 55.964844 C 79.589844 55.964844 78.855469 56.707031 78.855469 57.609375 L 78.855469 58.351562 C 78.855469 59.253906 79.589844 59.996094 80.492188 59.996094 C 81.390625 59.996094 82.125 59.253906 82.125 58.351562 L 82.125 57.609375 C 82.125 56.707031 81.390625 55.964844 80.492188 55.964844 Z M 80.492188 55.964844 " fill-opacity="1" fill-rule="nonzero"/><path fill="rgb(0%, 29.019165%, 67.83905%)" d="M 80.492188 62.050781 C 79.589844 62.050781 78.855469 62.789062 78.855469 63.695312 L 78.855469 64.105469 C 78.855469 65.007812 79.589844 65.75 80.492188 65.75 C 81.390625 65.75 82.125 65.007812 82.125 64.105469 L 82.125 63.695312 C 82.125 62.789062 81.390625 62.050781 80.492188 62.050781 Z M 80.492188 62.050781 " fill-opacity="1" fill-rule="nonzero"/><path fill="rgb(0%, 29.019165%, 67.83905%)" d="M 87.035156 44.128906 C 86.132812 44.128906 85.398438 44.867188 85.398438 45.773438 L 85.398438 46.183594 C 85.398438 47.085938 86.132812 47.828125 87.035156 47.828125 C 87.933594 47.828125 88.667969 47.085938 88.667969 46.183594 L 88.667969 45.773438 C 88.667969 44.867188 87.933594 44.128906 87.035156 44.128906 Z M 87.035156 44.128906 " fill-opacity="1" fill-rule="nonzero"/><path fill="rgb(0%, 29.019165%, 67.83905%)" d="M 87.035156 50.375 C 86.132812 50.375 85.398438 51.117188 85.398438 52.019531 L 85.398438 52.84375 C 85.398438 53.746094 86.132812 54.488281 87.035156 54.488281 C 87.933594 54.488281 88.667969 53.746094 88.667969 52.84375 L 88.667969 52.019531 C 88.667969 51.117188 87.933594 50.375 87.035156 50.375 Z M 87.035156 50.375 " fill-opacity="1" fill-rule="nonzero"/><path fill="rgb(0%, 29.019165%, 67.83905%)" d="M 87.035156 63.695312 C 86.132812 63.695312 85.398438 64.433594 85.398438 65.339844 L 85.398438 66.160156 C 85.398438 67.066406 86.132812 67.804688 87.035156 67.804688 C 87.933594 67.804688 88.667969 67.066406 88.667969 66.160156 L 88.667969 65.339844 C 88.667969 64.433594 87.933594 63.695312 87.035156 63.695312 Z M 87.035156 63.695312 " fill-opacity="1" fill-rule="nonzero"/><path fill="rgb(0%, 29.019165%, 67.83905%)" d="M 87.035156 57.035156 C 86.132812 57.035156 85.398438 57.773438 85.398438 58.679688 L 85.398438 59.5 C 85.398438 60.40625 86.132812 61.144531 87.035156 61.144531 C 87.933594 61.144531 88.667969 60.40625 88.667969 59.5 L 88.667969 58.679688 C 88.667969 57.773438 87.933594 57.035156 87.035156 57.035156 Z M 87.035156 57.035156 " fill-opacity="1" fill-rule="nonzero"/><path fill="rgb(0%, 29.019165%, 67.83905%)" d="M 87.035156 70.351562 C 86.132812 70.351562 85.398438 71.09375 85.398438 71.996094 L 85.398438 72.40625 C 85.398438 73.3125 86.132812 74.050781 87.035156 74.050781 C 87.933594 74.050781 88.667969 73.3125 88.667969 72.40625 L 88.667969 71.996094 C 88.667969 71.09375 87.933594 70.351562 87.035156 70.351562 Z M 87.035156 70.351562 " fill-opacity="1" fill-rule="nonzero"/><path fill="rgb(0%, 29.019165%, 67.83905%)" d="M 93.578125 44.128906 C 92.679688 44.128906 91.941406 44.867188 91.941406 45.773438 L 91.941406 46.183594 C 91.941406 47.085938 92.679688 47.828125 93.578125 47.828125 C 94.476562 47.828125 95.214844 47.085938 95.214844 46.183594 L 95.214844 45.773438 C 95.214844 44.867188 94.476562 44.128906 93.578125 44.128906 Z M 93.578125 44.128906 " fill-opacity="1" fill-rule="nonzero"/><path fill="rgb(0%, 29.019165%, 67.83905%)" d="M 93.578125 49.882812 C 92.679688 49.882812 91.941406 50.621094 91.941406 51.527344 L 91.941406 52.265625 C 91.941406 53.171875 92.679688 53.910156 93.578125 53.910156 C 94.476562 53.910156 95.214844 53.171875 95.214844 52.265625 L 95.214844 51.527344 C 95.214844 50.539062 94.476562 49.882812 93.578125 49.882812 Z M 93.578125 49.882812 " fill-opacity="1" fill-rule="nonzero"/><path fill="rgb(0%, 29.019165%, 67.83905%)" d="M 93.578125 55.964844 C 92.679688 55.964844 91.941406 56.707031 91.941406 57.609375 L 91.941406 58.351562 C 91.941406 59.253906 92.679688 59.996094 93.578125 59.996094 C 94.476562 59.996094 95.214844 59.253906 95.214844 58.351562 L 95.214844 57.609375 C 95.214844 56.707031 94.476562 55.964844 93.578125 55.964844 Z M 93.578125 55.964844 " fill-opacity="1" fill-rule="nonzero"/><path fill="rgb(0%, 29.019165%, 67.83905%)" d="M 93.578125 62.050781 C 92.679688 62.050781 91.941406 62.789062 91.941406 63.695312 L 91.941406 64.105469 C 91.941406 65.007812 92.679688 65.75 93.578125 65.75 C 94.476562 65.75 95.214844 65.007812 95.214844 64.105469 L 95.214844 63.695312 C 95.214844 62.789062 94.476562 62.050781 93.578125 62.050781 Z M 93.578125 62.050781 " fill-opacity="1" fill-rule="nonzero"/><path fill="rgb(0%, 29.019165%, 67.83905%)" d="M 100.121094 44.128906 C 99.222656 44.128906 98.484375 44.867188 98.484375 45.773438 L 98.484375 46.183594 C 98.484375 47.085938 99.222656 47.828125 100.121094 47.828125 C 101.019531 47.828125 101.757812 47.085938 101.757812 46.183594 L 101.757812 45.773438 C 101.757812 44.867188 101.019531 44.128906 100.121094 44.128906 Z M 100.121094 44.128906 " fill-opacity="1" fill-rule="nonzero"/><path fill="rgb(0%, 29.019165%, 67.83905%)" d="M 100.121094 50.375 C 99.222656 50.375 98.484375 51.117188 98.484375 52.019531 L 98.484375 52.84375 C 98.484375 53.746094 99.222656 54.488281 100.121094 54.488281 C 101.019531 54.488281 101.757812 53.746094 101.757812 52.84375 L 101.757812 52.019531 C 101.757812 51.117188 101.019531 50.375 100.121094 50.375 Z M 100.121094 50.375 " fill-opacity="1" fill-rule="nonzero"/><path fill="rgb(0%, 29.019165%, 67.83905%)" d="M 100.121094 63.695312 C 99.222656 63.695312 98.484375 64.433594 98.484375 65.339844 L 98.484375 66.160156 C 98.484375 67.066406 99.222656 67.804688 100.121094 67.804688 C 101.019531 67.804688 101.757812 67.066406 101.757812 66.160156 L 101.757812 65.339844 C 101.757812 64.433594 101.019531 63.695312 100.121094 63.695312 Z M 100.121094 63.695312 " fill-opacity="1" fill-rule="nonzero"/><path fill="rgb(0%, 29.019165%, 67.83905%)" d="M 100.121094 57.035156 C 99.222656 57.035156 98.484375 57.773438 98.484375 58.679688 L 98.484375 59.5 C 98.484375 60.40625 99.222656 61.144531 100.121094 61.144531 C 101.019531 61.144531 101.757812 60.40625 101.757812 59.5 L 101.757812 58.679688 C 101.757812 57.773438 101.019531 57.035156 100.121094 57.035156 Z M 100.121094 57.035156 " fill-opacity="1" fill-rule="nonzero"/><path fill="rgb(0%, 29.019165%, 67.83905%)" d="M 100.121094 70.351562 C 99.222656 70.351562 98.484375 71.09375 98.484375 71.996094 L 98.484375 72.40625 C 98.484375 73.3125 99.222656 74.050781 100.121094 74.050781 C 101.019531 74.050781 101.757812 73.3125 101.757812 72.40625 L 101.757812 71.996094 C 101.757812 71.09375 101.019531 70.351562 100.121094 70.351562 Z M 100.121094 70.351562 " fill-opacity="1" fill-rule="nonzero"/></g></g></g></g><g fill="rgb(0%, 0%, 0%)" fill-opacity="1"><g transform="translate(99.489691, 51.599365)"><g><path d="M 3.425781 -32.964844 C 3.425781 -25.675781 6.363281 -11.367188 9.519531 -4.839844 C 10.117188 -3.644531 10.878906 -2.449219 12.074219 -1.6875 C 13.273438 -0.925781 14.742188 -0.761719 16.15625 -0.761719 C 17.351562 -0.761719 18.601562 -0.761719 19.746094 -1.195312 C 23.007812 -2.339844 23.335938 -11.75 23.609375 -14.742188 C 23.714844 -15.828125 23.824219 -16.863281 23.988281 -17.949219 C 24.207031 -19.417969 24.316406 -21.921875 24.859375 -23.226562 C 24.914062 -23.335938 24.96875 -23.554688 25.128906 -23.554688 C 26 -23.554688 26.652344 -17.894531 26.707031 -16.644531 C 26.761719 -15.503906 26.925781 -14.359375 27.035156 -13.21875 C 27.304688 -10.550781 27.960938 -2.503906 30.460938 -1.140625 C 30.949219 -0.871094 31.496094 -0.707031 32.039062 -0.707031 C 33.78125 -0.707031 36.609375 -0.488281 38.132812 -1.523438 C 43.40625 -5.058594 47.105469 -26 47.105469 -32.363281 C 47.105469 -37.261719 45.910156 -38.511719 41.015625 -38.511719 C 39.980469 -38.511719 39.054688 -38.347656 38.292969 -37.585938 C 36.769531 -36.0625 36.554688 -21.8125 35.628906 -18.546875 C 35.519531 -18.113281 35.300781 -17.082031 34.757812 -17.082031 C 34.269531 -17.082031 34.050781 -19.363281 33.996094 -19.800781 C 33.78125 -21.648438 33.617188 -23.5 33.453125 -25.347656 C 32.964844 -30.351562 33.125 -39 26.054688 -39 C 24.367188 -39 22.085938 -39.164062 20.726562 -37.96875 C 17.625 -35.195312 17.789062 -28.722656 17.351562 -24.804688 C 17.242188 -23.769531 16.644531 -17.027344 15.613281 -17.027344 C 15.011719 -17.027344 14.851562 -20.070312 14.796875 -20.398438 L 14.25 -25.023438 C 13.871094 -28.339844 13.542969 -31.65625 13.21875 -34.976562 C 13 -36.878906 11.914062 -38.566406 9.84375 -38.566406 C 5.492188 -38.566406 3.425781 -37.695312 3.425781 -32.964844 Z M 3.425781 -32.964844 "/></g></g></g><g fill="rgb(0%, 0%, 0%)" fill-opacity="1"><g transform="translate(147.137739, 51.599365)"><g><path d="M 14.796875 -12.019531 C 14.796875 -12.78125 14.796875 -13.597656 14.957031 -14.359375 C 15.066406 -14.851562 15.230469 -15.339844 15.613281 -15.664062 C 16.644531 -16.535156 19.308594 -16.371094 20.671875 -16.371094 C 22.410156 -16.371094 27.851562 -16.046875 28.882812 -17.570312 C 29.265625 -18.167969 29.375 -19.039062 29.375 -19.746094 C 29.375 -20.617188 29.375 -22.191406 28.828125 -22.902344 C 27.960938 -24.042969 26.328125 -24.261719 24.96875 -24.261719 C 23.335938 -24.261719 21.703125 -24.097656 20.070312 -24.097656 C 18.113281 -24.097656 14.851562 -24.261719 14.851562 -26.925781 C 14.851562 -30.570312 16.320312 -30.515625 19.417969 -30.515625 C 21.214844 -30.515625 23.007812 -30.242188 24.804688 -30.242188 C 26.4375 -30.242188 29.972656 -30.1875 29.972656 -32.527344 C 29.972656 -33.941406 29.753906 -35.574219 28.722656 -36.664062 C 26.980469 -38.511719 23.988281 -39.054688 21.539062 -39.054688 C 9.84375 -39.054688 3.644531 -38.945312 3.644531 -25.238281 C 3.644531 -23.0625 3.699219 -20.941406 3.699219 -18.765625 C 3.699219 -16.101562 3.753906 -13.4375 3.917969 -10.769531 C 4.1875 -6.691406 5.277344 -3.425781 9.300781 -1.796875 C 12.890625 -0.328125 17.40625 -0.652344 21.269531 -0.652344 C 24.804688 -0.652344 29.917969 -1.46875 29.917969 -5.984375 C 29.917969 -8.539062 29.480469 -9.300781 26.816406 -9.300781 C 23.824219 -9.300781 20.777344 -9.136719 17.789062 -9.136719 C 15.828125 -9.136719 14.796875 -10.0625 14.796875 -12.019531 Z M 14.796875 -12.019531 "/></g></g></g><g fill="rgb(0%, 0%, 0%)" fill-opacity="1"><g transform="translate(177.923921, 51.599365)"><g><path d="M 9.355469 -1.035156 C 17.027344 -1.035156 9.191406 -8.050781 18.496094 -8.050781 C 29.808594 -8.050781 21.59375 -0.980469 28.066406 -0.980469 C 30.734375 -0.980469 35.355469 -0.980469 35.355469 -4.730469 C 35.355469 -10.0625 27.6875 -32.910156 24.367188 -36.988281 C 22.847656 -38.839844 21.539062 -39.109375 19.257812 -39.109375 C 17.789062 -39.109375 16.699219 -39.109375 15.449219 -38.238281 C 11.3125 -35.464844 3.210938 -10.550781 3.210938 -5.222656 C 3.210938 -0.816406 5.875 -1.035156 9.355469 -1.035156 Z M 18.820312 -15.882812 C 17.570312 -15.882812 16.425781 -16.15625 16.425781 -17.625 C 16.425781 -18.820312 18.058594 -27.089844 19.148438 -27.089844 C 20.453125 -27.089844 21.867188 -18.929688 21.867188 -17.679688 C 21.867188 -16.535156 21.050781 -15.882812 19.964844 -15.882812 Z M 18.820312 -15.882812 "/></g></g></g><g fill="rgb(0%, 0%, 0%)" fill-opacity="1"><g transform="translate(213.605484, 51.599365)"><g><path d="M 34.050781 -32.3125 C 34.050781 -32.910156 33.886719 -35.195312 33.726562 -35.683594 C 32.257812 -39.707031 19.855469 -39.054688 16.535156 -39.054688 C 13.707031 -39.054688 5.875 -38.894531 3.863281 -36.933594 C 3.046875 -36.117188 2.828125 -33.5625 2.828125 -32.417969 C 2.828125 -27.253906 11.3125 -32.800781 12.402344 -26.980469 C 12.621094 -25.675781 12.675781 -24.316406 12.675781 -23.007812 C 12.675781 -20.234375 12.566406 -17.515625 12.566406 -14.742188 C 12.566406 -11.804688 12.511719 -2.773438 15.230469 -1.140625 C 16.15625 -0.597656 17.515625 -0.652344 18.601562 -0.652344 C 19.855469 -0.652344 21.378906 -0.597656 22.355469 -1.523438 C 24.097656 -3.210938 24.261719 -14.523438 24.261719 -17.242188 C 24.261719 -19.472656 24.152344 -21.648438 24.152344 -23.878906 C 24.152344 -27.144531 24.804688 -30.136719 28.722656 -30.136719 C 29.535156 -30.136719 30.296875 -30.027344 31.113281 -30.027344 C 32.691406 -30.027344 34.050781 -30.460938 34.050781 -32.3125 Z M 34.050781 -32.3125 "/></g></g></g><g fill="rgb(0%, 0%, 0%)" fill-opacity="1"><g transform="translate(247.655266, 51.599365)"><g><path d="M 11.804688 -38.730469 C 10.007812 -38.730469 8.050781 -38.730469 6.582031 -37.640625 C 6.039062 -37.261719 5.65625 -36.71875 5.332031 -36.171875 C 3.644531 -33.074219 3.644531 -22.410156 3.644531 -18.546875 C 3.644531 -15.175781 3.589844 -2.9375 7.289062 -1.46875 C 8.484375 -0.980469 10.335938 -0.925781 11.640625 -0.925781 C 14.742188 -0.925781 14.90625 -3.046875 14.90625 -5.546875 C 14.90625 -7.507812 14.578125 -9.410156 14.578125 -11.261719 C 14.578125 -14.90625 15.882812 -16.425781 19.527344 -16.425781 C 22.246094 -16.425781 24.695312 -16.265625 24.695312 -12.890625 C 24.695312 -10.933594 24.421875 -8.976562 24.421875 -7.015625 C 24.421875 -4.894531 24.585938 -0.925781 27.46875 -0.925781 C 29.210938 -0.925781 31.496094 -0.980469 32.964844 -2.066406 C 33.507812 -2.449219 33.886719 -2.9375 34.214844 -3.480469 C 35.738281 -6.308594 35.957031 -14.851562 35.957031 -18.222656 C 35.957031 -22.519531 36.171875 -34.59375 33.179688 -37.585938 C 32.257812 -38.566406 28.992188 -38.730469 27.6875 -38.730469 C 25.128906 -38.730469 24.585938 -37.097656 24.585938 -34.8125 C 24.585938 -32.800781 25.023438 -30.84375 25.023438 -28.828125 C 25.023438 -25.238281 23.007812 -24.316406 19.800781 -24.316406 C 14.957031 -24.316406 14.796875 -25.785156 14.796875 -30.136719 C 14.796875 -31.496094 15.011719 -32.855469 15.011719 -34.214844 C 15.011719 -36.554688 14.578125 -38.730469 11.804688 -38.730469 Z M 11.804688 -38.730469 "/></g></g></g><g fill="rgb(0%, 0%, 0%)" fill-opacity="1"><g transform="translate(284.42469, 51.599365)"><g><path d="M 14.796875 -12.019531 C 14.796875 -12.78125 14.796875 -13.597656 14.957031 -14.359375 C 15.066406 -14.851562 15.230469 -15.339844 15.613281 -15.664062 C 16.644531 -16.535156 19.308594 -16.371094 20.671875 -16.371094 C 22.410156 -16.371094 27.851562 -16.046875 28.882812 -17.570312 C 29.265625 -18.167969 29.375 -19.039062 29.375 -19.746094 C 29.375 -20.617188 29.375 -22.191406 28.828125 -22.902344 C 27.960938 -24.042969 26.328125 -24.261719 24.96875 -24.261719 C 23.335938 -24.261719 21.703125 -24.097656 20.070312 -24.097656 C 18.113281 -24.097656 14.851562 -24.261719 14.851562 -26.925781 C 14.851562 -30.570312 16.320312 -30.515625 19.417969 -30.515625 C 21.214844 -30.515625 23.007812 -30.242188 24.804688 -30.242188 C 26.4375 -30.242188 29.972656 -30.1875 29.972656 -32.527344 C 29.972656 -33.941406 29.753906 -35.574219 28.722656 -36.664062 C 26.980469 -38.511719 23.988281 -39.054688 21.539062 -39.054688 C 9.84375 -39.054688 3.644531 -38.945312 3.644531 -25.238281 C 3.644531 -23.0625 3.699219 -20.941406 3.699219 -18.765625 C 3.699219 -16.101562 3.753906 -13.4375 3.917969 -10.769531 C 4.1875 -6.691406 5.277344 -3.425781 9.300781 -1.796875 C 12.890625 -0.328125 17.40625 -0.652344 21.269531 -0.652344 C 24.804688 -0.652344 29.917969 -1.46875 29.917969 -5.984375 C 29.917969 -8.539062 29.480469 -9.300781 26.816406 -9.300781 C 23.824219 -9.300781 20.777344 -9.136719 17.789062 -9.136719 C 15.828125 -9.136719 14.796875 -10.0625 14.796875 -12.019531 Z M 14.796875 -12.019531 "/></g></g></g><g fill="rgb(0%, 0%, 0%)" fill-opacity="1"><g transform="translate(315.210877, 51.599365)"><g><path d="M 14.578125 -5.441406 C 14.578125 -6.800781 14.414062 -8.160156 14.414062 -9.464844 C 14.414062 -10.445312 14.414062 -14.089844 15.773438 -14.089844 C 24.859375 -14.089844 20.125 -0.871094 27.144531 -0.871094 C 28.503906 -0.871094 34.105469 -1.140625 34.105469 -3.046875 C 34.105469 -5.441406 31.386719 -13.542969 29.808594 -15.285156 C 29.480469 -15.613281 27.960938 -17.027344 27.960938 -17.40625 C 27.960938 -17.679688 28.773438 -18.222656 28.992188 -18.332031 C 30.84375 -19.527344 32.472656 -21.105469 33.617188 -23.007812 C 34.378906 -24.261719 34.648438 -25.621094 34.648438 -27.035156 C 34.648438 -35.195312 26.707031 -39.601562 19.363281 -39.601562 C 16.210938 -39.601562 8.867188 -39.546875 6.472656 -37.476562 C 5.277344 -36.445312 4.679688 -33.832031 4.40625 -32.3125 C 3.808594 -28.613281 3.644531 -24.804688 3.644531 -21.050781 C 3.644531 -17.460938 3.316406 -3.101562 7.179688 -1.523438 C 8.484375 -0.980469 9.953125 -0.925781 11.367188 -0.925781 C 14.414062 -0.925781 14.578125 -2.9375 14.578125 -5.441406 Z M 14.46875 -28.9375 C 14.46875 -30.40625 14.90625 -31.65625 16.589844 -31.65625 L 18.167969 -31.65625 C 20.777344 -31.65625 23.660156 -29.863281 23.660156 -26.980469 C 23.660156 -22.085938 19.910156 -21.648438 15.9375 -21.648438 C 14.578125 -21.648438 14.46875 -23.226562 14.46875 -24.261719 Z M 14.46875 -28.9375 "/></g></g></g><g fill="rgb(0%, 0%, 0%)" fill-opacity="1"><g transform="translate(50.932031, 76.698015)"><g><path d="M 1.921875 0 C 1.796875 0 1.6875 -0.046875 1.59375 -0.140625 C 1.5 -0.234375 1.453125 -0.347656 1.453125 -0.484375 L 1.453125 -13.25 C 1.453125 -13.394531 1.5 -13.515625 1.59375 -13.609375 C 1.6875 -13.703125 1.796875 -13.75 1.921875 -13.75 L 7.78125 -13.75 C 8.863281 -13.75 9.753906 -13.59375 10.453125 -13.28125 C 11.160156 -12.96875 11.675781 -12.519531 12 -11.9375 C 12.320312 -11.363281 12.484375 -10.691406 12.484375 -9.921875 C 12.484375 -9.429688 12.394531 -9.003906 12.21875 -8.640625 C 12.050781 -8.273438 11.835938 -7.972656 11.578125 -7.734375 C 11.316406 -7.503906 11.070312 -7.328125 10.84375 -7.203125 C 11.351562 -6.972656 11.800781 -6.582031 12.1875 -6.03125 C 12.582031 -5.488281 12.78125 -4.847656 12.78125 -4.109375 C 12.78125 -3.285156 12.59375 -2.5625 12.21875 -1.9375 C 11.851562 -1.320312 11.304688 -0.84375 10.578125 -0.5 C 9.859375 -0.164062 8.984375 0 7.953125 0 Z M 4.578125 -2.3125 L 7.578125 -2.3125 C 8.222656 -2.3125 8.707031 -2.488281 9.03125 -2.84375 C 9.363281 -3.207031 9.53125 -3.632812 9.53125 -4.125 C 9.53125 -4.632812 9.363281 -5.0625 9.03125 -5.40625 C 8.695312 -5.757812 8.210938 -5.9375 7.578125 -5.9375 L 4.578125 -5.9375 Z M 4.578125 -8.1875 L 7.40625 -8.1875 C 8.019531 -8.1875 8.476562 -8.335938 8.78125 -8.640625 C 9.09375 -8.953125 9.25 -9.351562 9.25 -9.84375 C 9.25 -10.320312 9.09375 -10.707031 8.78125 -11 C 8.476562 -11.289062 8.019531 -11.4375 7.40625 -11.4375 L 4.578125 -11.4375 Z M 4.578125 -8.1875 "/></g></g></g><g fill="rgb(0%, 0%, 0%)" fill-opacity="1"><g transform="translate(72.444068, 76.698015)"><g><path d="M 0.640625 0 C 0.523438 0 0.425781 -0.0390625 0.34375 -0.125 C 0.269531 -0.207031 0.234375 -0.300781 0.234375 -0.40625 C 0.234375 -0.476562 0.238281 -0.539062 0.25 -0.59375 L 4.9375 -13.21875 C 4.96875 -13.363281 5.039062 -13.488281 5.15625 -13.59375 C 5.28125 -13.695312 5.445312 -13.75 5.65625 -13.75 L 8.171875 -13.75 C 8.378906 -13.75 8.539062 -13.695312 8.65625 -13.59375 C 8.78125 -13.488281 8.867188 -13.363281 8.921875 -13.21875 L 13.578125 -0.59375 C 13.597656 -0.539062 13.609375 -0.476562 13.609375 -0.40625 C 13.609375 -0.300781 13.566406 -0.207031 13.484375 -0.125 C 13.398438 -0.0390625 13.296875 0 13.171875 0 L 11.109375 0 C 10.929688 0 10.796875 -0.046875 10.703125 -0.140625 C 10.609375 -0.234375 10.550781 -0.316406 10.53125 -0.390625 L 9.6875 -2.59375 L 4.140625 -2.59375 L 3.3125 -0.390625 C 3.28125 -0.316406 3.21875 -0.234375 3.125 -0.140625 C 3.039062 -0.046875 2.898438 0 2.703125 0 Z M 4.890625 -5.125 L 8.9375 -5.125 L 6.90625 -10.765625 Z M 4.890625 -5.125 "/></g></g></g><g fill="rgb(0%, 0%, 0%)" fill-opacity="1"><g transform="translate(94.132882, 76.698015)"><g><path d="M 6.90625 0.203125 C 5.695312 0.203125 4.660156 -0.00390625 3.796875 -0.421875 C 2.929688 -0.835938 2.257812 -1.441406 1.78125 -2.234375 C 1.3125 -3.023438 1.050781 -3.988281 1 -5.125 C 0.988281 -5.664062 0.984375 -6.242188 0.984375 -6.859375 C 0.984375 -7.472656 0.988281 -8.0625 1 -8.625 C 1.050781 -9.75 1.316406 -10.707031 1.796875 -11.5 C 2.273438 -12.289062 2.945312 -12.894531 3.8125 -13.3125 C 4.675781 -13.726562 5.707031 -13.9375 6.90625 -13.9375 C 7.800781 -13.9375 8.601562 -13.828125 9.3125 -13.609375 C 10.03125 -13.390625 10.648438 -13.066406 11.171875 -12.640625 C 11.703125 -12.222656 12.113281 -11.734375 12.40625 -11.171875 C 12.695312 -10.609375 12.847656 -9.984375 12.859375 -9.296875 C 12.878906 -9.171875 12.84375 -9.066406 12.75 -8.984375 C 12.664062 -8.910156 12.566406 -8.875 12.453125 -8.875 L 10.1875 -8.875 C 10.03125 -8.875 9.90625 -8.910156 9.8125 -8.984375 C 9.726562 -9.054688 9.660156 -9.1875 9.609375 -9.375 C 9.410156 -10.15625 9.082031 -10.6875 8.625 -10.96875 C 8.164062 -11.25 7.59375 -11.390625 6.90625 -11.390625 C 6.113281 -11.390625 5.476562 -11.164062 5 -10.71875 C 4.53125 -10.28125 4.28125 -9.550781 4.25 -8.53125 C 4.207031 -7.445312 4.207031 -6.34375 4.25 -5.21875 C 4.28125 -4.195312 4.53125 -3.460938 5 -3.015625 C 5.476562 -2.578125 6.113281 -2.359375 6.90625 -2.359375 C 7.59375 -2.359375 8.164062 -2.5 8.625 -2.78125 C 9.09375 -3.070312 9.421875 -3.601562 9.609375 -4.375 C 9.660156 -4.5625 9.726562 -4.691406 9.8125 -4.765625 C 9.90625 -4.835938 10.03125 -4.875 10.1875 -4.875 L 12.453125 -4.875 C 12.566406 -4.875 12.664062 -4.832031 12.75 -4.75 C 12.84375 -4.675781 12.878906 -4.578125 12.859375 -4.453125 C 12.847656 -3.765625 12.695312 -3.140625 12.40625 -2.578125 C 12.113281 -2.015625 11.703125 -1.519531 11.171875 -1.09375 C 10.648438 -0.675781 10.03125 -0.351562 9.3125 -0.125 C 8.601562 0.09375 7.800781 0.203125 6.90625 0.203125 Z M 6.90625 0.203125 "/></g></g></g><g fill="rgb(0%, 0%, 0%)" fill-opacity="1"><g transform="translate(115.605639, 76.698015)"><g><path d="M 1.921875 0 C 1.796875 0 1.6875 -0.046875 1.59375 -0.140625 C 1.5 -0.234375 1.453125 -0.347656 1.453125 -0.484375 L 1.453125 -13.25 C 1.453125 -13.394531 1.5 -13.515625 1.59375 -13.609375 C 1.6875 -13.703125 1.796875 -13.75 1.921875 -13.75 L 4.046875 -13.75 C 4.191406 -13.75 4.304688 -13.703125 4.390625 -13.609375 C 4.484375 -13.515625 4.53125 -13.394531 4.53125 -13.25 L 4.53125 -8.78125 L 8.5625 -13.375 C 8.613281 -13.457031 8.703125 -13.539062 8.828125 -13.625 C 8.953125 -13.707031 9.117188 -13.75 9.328125 -13.75 L 11.71875 -13.75 C 11.820312 -13.75 11.914062 -13.707031 12 -13.625 C 12.09375 -13.539062 12.140625 -13.445312 12.140625 -13.34375 C 12.140625 -13.25 12.113281 -13.164062 12.0625 -13.09375 L 7.015625 -7.171875 L 12.4375 -0.640625 C 12.488281 -0.585938 12.515625 -0.507812 12.515625 -0.40625 C 12.515625 -0.300781 12.46875 -0.207031 12.375 -0.125 C 12.289062 -0.0390625 12.195312 0 12.09375 0 L 9.625 0 C 9.382812 0 9.207031 -0.0507812 9.09375 -0.15625 C 8.976562 -0.257812 8.898438 -0.332031 8.859375 -0.375 L 4.53125 -5.40625 L 4.53125 -0.484375 C 4.53125 -0.347656 4.484375 -0.234375 4.390625 -0.140625 C 4.304688 -0.046875 4.191406 0 4.046875 0 Z M 1.921875 0 "/></g></g></g><g fill="rgb(0%, 0%, 0%)" fill-opacity="1"><g transform="translate(136.174886, 76.698015)"><g><path d="M 1.921875 0 C 1.796875 0 1.6875 -0.046875 1.59375 -0.140625 C 1.5 -0.234375 1.453125 -0.347656 1.453125 -0.484375 L 1.453125 -13.25 C 1.453125 -13.394531 1.5 -13.515625 1.59375 -13.609375 C 1.6875 -13.703125 1.796875 -13.75 1.921875 -13.75 L 10.84375 -13.75 C 10.988281 -13.75 11.101562 -13.703125 11.1875 -13.609375 C 11.28125 -13.515625 11.328125 -13.394531 11.328125 -13.25 L 11.328125 -11.6875 C 11.328125 -11.539062 11.28125 -11.421875 11.1875 -11.328125 C 11.101562 -11.234375 10.988281 -11.1875 10.84375 -11.1875 L 4.484375 -11.1875 L 4.484375 -8.125 L 10.40625 -8.125 C 10.550781 -8.125 10.671875 -8.078125 10.765625 -7.984375 C 10.859375 -7.898438 10.90625 -7.785156 10.90625 -7.640625 L 10.90625 -6.1875 C 10.90625 -6.050781 10.859375 -5.9375 10.765625 -5.84375 C 10.671875 -5.75 10.550781 -5.703125 10.40625 -5.703125 L 4.484375 -5.703125 L 4.484375 -2.546875 L 11 -2.546875 C 11.144531 -2.546875 11.257812 -2.5 11.34375 -2.40625 C 11.4375 -2.320312 11.484375 -2.207031 11.484375 -2.0625 L 11.484375 -0.484375 C 11.484375 -0.347656 11.4375 -0.234375 11.34375 -0.140625 C 11.257812 -0.046875 11.144531 0 11 0 Z M 1.921875 0 "/></g></g></g><g fill="rgb(0%, 0%, 0%)" fill-opacity="1"><g transform="translate(156.429857, 76.698015)"><g><path d="M 1.921875 0 C 1.796875 0 1.6875 -0.046875 1.59375 -0.140625 C 1.5 -0.234375 1.453125 -0.347656 1.453125 -0.484375 L 1.453125 -13.25 C 1.453125 -13.394531 1.5 -13.515625 1.59375 -13.609375 C 1.6875 -13.703125 1.796875 -13.75 1.921875 -13.75 L 3.734375 -13.75 C 3.929688 -13.75 4.070312 -13.703125 4.15625 -13.609375 C 4.25 -13.515625 4.3125 -13.441406 4.34375 -13.390625 L 9.5625 -5.21875 L 9.5625 -13.25 C 9.5625 -13.394531 9.609375 -13.515625 9.703125 -13.609375 C 9.796875 -13.703125 9.914062 -13.75 10.0625 -13.75 L 12.0625 -13.75 C 12.207031 -13.75 12.320312 -13.703125 12.40625 -13.609375 C 12.5 -13.515625 12.546875 -13.394531 12.546875 -13.25 L 12.546875 -0.484375 C 12.546875 -0.359375 12.5 -0.242188 12.40625 -0.140625 C 12.320312 -0.046875 12.207031 0 12.0625 0 L 10.25 0 C 10.050781 0 9.90625 -0.046875 9.8125 -0.140625 C 9.726562 -0.242188 9.671875 -0.316406 9.640625 -0.359375 L 4.4375 -8.265625 L 4.4375 -0.484375 C 4.4375 -0.347656 4.390625 -0.234375 4.296875 -0.140625 C 4.203125 -0.046875 4.085938 0 3.953125 0 Z M 1.921875 0 "/></g></g></g><g fill="rgb(0%, 0%, 0%)" fill-opacity="1"><g transform="translate(178.29545, 76.698015)"><g><path d="M 1.921875 0 C 1.796875 0 1.6875 -0.046875 1.59375 -0.140625 C 1.5 -0.234375 1.453125 -0.347656 1.453125 -0.484375 L 1.453125 -13.25 C 1.453125 -13.394531 1.5 -13.515625 1.59375 -13.609375 C 1.6875 -13.703125 1.796875 -13.75 1.921875 -13.75 L 6.875 -13.75 C 8.1875 -13.75 9.28125 -13.539062 10.15625 -13.125 C 11.03125 -12.71875 11.695312 -12.117188 12.15625 -11.328125 C 12.625 -10.535156 12.875 -9.554688 12.90625 -8.390625 C 12.925781 -7.804688 12.9375 -7.296875 12.9375 -6.859375 C 12.9375 -6.429688 12.925781 -5.9375 12.90625 -5.375 C 12.863281 -4.164062 12.617188 -3.160156 12.171875 -2.359375 C 11.734375 -1.554688 11.082031 -0.960938 10.21875 -0.578125 C 9.363281 -0.191406 8.28125 0 6.96875 0 Z M 4.578125 -2.546875 L 6.875 -2.546875 C 7.53125 -2.546875 8.0625 -2.640625 8.46875 -2.828125 C 8.882812 -3.023438 9.195312 -3.335938 9.40625 -3.765625 C 9.613281 -4.191406 9.722656 -4.742188 9.734375 -5.421875 C 9.753906 -5.796875 9.765625 -6.132812 9.765625 -6.4375 C 9.773438 -6.738281 9.773438 -7.039062 9.765625 -7.34375 C 9.765625 -7.644531 9.753906 -7.976562 9.734375 -8.34375 C 9.710938 -9.332031 9.460938 -10.050781 8.984375 -10.5 C 8.503906 -10.957031 7.769531 -11.1875 6.78125 -11.1875 L 4.578125 -11.1875 Z M 4.578125 -2.546875 "/></g></g></g><g fill="rgb(0%, 0%, 0%)" fill-opacity="1"><g transform="translate(200.08247, 76.698015)"><g/></g></g><g fill="rgb(0%, 0%, 0%)" fill-opacity="1"><g transform="translate(212.284346, 76.698015)"><g><path d="M 1.921875 0 C 1.796875 0 1.6875 -0.046875 1.59375 -0.140625 C 1.5 -0.234375 1.453125 -0.347656 1.453125 -0.484375 L 1.453125 -13.25 C 1.453125 -13.394531 1.5 -13.515625 1.59375 -13.609375 C 1.6875 -13.703125 1.796875 -13.75 1.921875 -13.75 L 7.3125 -13.75 C 8.363281 -13.75 9.28125 -13.582031 10.0625 -13.25 C 10.851562 -12.925781 11.460938 -12.429688 11.890625 -11.765625 C 12.328125 -11.109375 12.546875 -10.285156 12.546875 -9.296875 C 12.546875 -8.304688 12.328125 -7.488281 11.890625 -6.84375 C 11.460938 -6.195312 10.851562 -5.71875 10.0625 -5.40625 C 9.28125 -5.09375 8.363281 -4.9375 7.3125 -4.9375 L 4.671875 -4.9375 L 4.671875 -0.484375 C 4.671875 -0.347656 4.625 -0.234375 4.53125 -0.140625 C 4.445312 -0.046875 4.332031 0 4.1875 0 Z M 4.640625 -7.359375 L 7.203125 -7.359375 C 7.867188 -7.359375 8.382812 -7.519531 8.75 -7.84375 C 9.125 -8.175781 9.3125 -8.664062 9.3125 -9.3125 C 9.3125 -9.894531 9.144531 -10.367188 8.8125 -10.734375 C 8.476562 -11.109375 7.941406 -11.296875 7.203125 -11.296875 L 4.640625 -11.296875 Z M 4.640625 -7.359375 "/></g></g></g><g fill="rgb(0%, 0%, 0%)" fill-opacity="1"><g transform="translate(233.266048, 76.698015)"><g><path d="M 1.921875 0 C 1.796875 0 1.6875 -0.046875 1.59375 -0.140625 C 1.5 -0.234375 1.453125 -0.347656 1.453125 -0.484375 L 1.453125 -13.25 C 1.453125 -13.394531 1.5 -13.515625 1.59375 -13.609375 C 1.6875 -13.703125 1.796875 -13.75 1.921875 -13.75 L 7.15625 -13.75 C 8.789062 -13.75 10.078125 -13.367188 11.015625 -12.609375 C 11.960938 -11.859375 12.4375 -10.78125 12.4375 -9.375 C 12.4375 -8.414062 12.207031 -7.613281 11.75 -6.96875 C 11.289062 -6.332031 10.675781 -5.851562 9.90625 -5.53125 L 12.6875 -0.625 C 12.726562 -0.550781 12.75 -0.476562 12.75 -0.40625 C 12.75 -0.300781 12.703125 -0.207031 12.609375 -0.125 C 12.523438 -0.0390625 12.429688 0 12.328125 0 L 10.140625 0 C 9.898438 0 9.71875 -0.0625 9.59375 -0.1875 C 9.476562 -0.3125 9.394531 -0.425781 9.34375 -0.53125 L 6.953125 -5.03125 L 4.578125 -5.03125 L 4.578125 -0.484375 C 4.578125 -0.347656 4.53125 -0.234375 4.4375 -0.140625 C 4.34375 -0.046875 4.222656 0 4.078125 0 Z M 4.578125 -7.515625 L 7.109375 -7.515625 C 7.816406 -7.515625 8.34375 -7.675781 8.6875 -8 C 9.039062 -8.332031 9.21875 -8.796875 9.21875 -9.390625 C 9.21875 -9.972656 9.046875 -10.4375 8.703125 -10.78125 C 8.359375 -11.125 7.828125 -11.296875 7.109375 -11.296875 L 4.578125 -11.296875 Z M 4.578125 -7.515625 "/></g></g></g><g fill="rgb(0%, 0%, 0%)" fill-opacity="1"><g transform="translate(254.522746, 76.698015)"><g><path d="M 6.90625 0.203125 C 5.71875 0.203125 4.691406 0.00390625 3.828125 -0.390625 C 2.960938 -0.785156 2.285156 -1.378906 1.796875 -2.171875 C 1.316406 -2.960938 1.054688 -3.960938 1.015625 -5.171875 C 1.003906 -5.734375 1 -6.289062 1 -6.84375 C 1 -7.394531 1.003906 -7.960938 1.015625 -8.546875 C 1.054688 -9.722656 1.320312 -10.710938 1.8125 -11.515625 C 2.300781 -12.328125 2.984375 -12.929688 3.859375 -13.328125 C 4.734375 -13.734375 5.75 -13.9375 6.90625 -13.9375 C 8.0625 -13.9375 9.070312 -13.734375 9.9375 -13.328125 C 10.8125 -12.929688 11.5 -12.328125 12 -11.515625 C 12.5 -10.710938 12.769531 -9.722656 12.8125 -8.546875 C 12.832031 -7.960938 12.84375 -7.394531 12.84375 -6.84375 C 12.84375 -6.289062 12.832031 -5.734375 12.8125 -5.171875 C 12.769531 -3.960938 12.503906 -2.960938 12.015625 -2.171875 C 11.523438 -1.378906 10.847656 -0.785156 9.984375 -0.390625 C 9.117188 0.00390625 8.09375 0.203125 6.90625 0.203125 Z M 6.90625 -2.359375 C 7.664062 -2.359375 8.289062 -2.585938 8.78125 -3.046875 C 9.28125 -3.503906 9.539062 -4.242188 9.5625 -5.265625 C 9.59375 -5.835938 9.609375 -6.375 9.609375 -6.875 C 9.609375 -7.382812 9.59375 -7.921875 9.5625 -8.484375 C 9.550781 -9.160156 9.425781 -9.710938 9.1875 -10.140625 C 8.957031 -10.578125 8.644531 -10.894531 8.25 -11.09375 C 7.863281 -11.289062 7.414062 -11.390625 6.90625 -11.390625 C 6.414062 -11.390625 5.972656 -11.289062 5.578125 -11.09375 C 5.179688 -10.894531 4.863281 -10.578125 4.625 -10.140625 C 4.394531 -9.710938 4.269531 -9.160156 4.25 -8.484375 C 4.226562 -7.921875 4.21875 -7.382812 4.21875 -6.875 C 4.21875 -6.375 4.226562 -5.835938 4.25 -5.265625 C 4.28125 -4.242188 4.535156 -3.503906 5.015625 -3.046875 C 5.503906 -2.585938 6.132812 -2.359375 6.90625 -2.359375 Z M 6.90625 -2.359375 "/></g></g></g><g fill="rgb(0%, 0%, 0%)" fill-opacity="1"><g transform="translate(276.191907, 76.698015)"><g><path d="M 6.046875 0.203125 C 5.316406 0.203125 4.625 0.109375 3.96875 -0.078125 C 3.3125 -0.265625 2.726562 -0.539062 2.21875 -0.90625 C 1.707031 -1.28125 1.300781 -1.742188 1 -2.296875 C 0.695312 -2.847656 0.539062 -3.488281 0.53125 -4.21875 C 0.53125 -4.34375 0.566406 -4.445312 0.640625 -4.53125 C 0.722656 -4.613281 0.820312 -4.65625 0.9375 -4.65625 L 3.203125 -4.65625 C 3.378906 -4.65625 3.515625 -4.613281 3.609375 -4.53125 C 3.703125 -4.445312 3.773438 -4.3125 3.828125 -4.125 C 3.910156 -3.71875 4.054688 -3.378906 4.265625 -3.109375 C 4.472656 -2.835938 4.734375 -2.644531 5.046875 -2.53125 C 5.367188 -2.414062 5.726562 -2.359375 6.125 -2.359375 C 6.875 -2.359375 7.441406 -2.597656 7.828125 -3.078125 C 8.222656 -3.554688 8.421875 -4.238281 8.421875 -5.125 L 8.421875 -11.109375 L 1.90625 -11.109375 C 1.769531 -11.109375 1.65625 -11.15625 1.5625 -11.25 C 1.476562 -11.34375 1.4375 -11.460938 1.4375 -11.609375 L 1.4375 -13.25 C 1.4375 -13.394531 1.476562 -13.515625 1.5625 -13.609375 C 1.65625 -13.703125 1.769531 -13.75 1.90625 -13.75 L 11.15625 -13.75 C 11.300781 -13.75 11.414062 -13.703125 11.5 -13.609375 C 11.59375 -13.515625 11.640625 -13.394531 11.640625 -13.25 L 11.640625 -5.046875 C 11.640625 -3.921875 11.40625 -2.96875 10.9375 -2.1875 C 10.46875 -1.40625 9.8125 -0.8125 8.96875 -0.40625 C 8.132812 0 7.160156 0.203125 6.046875 0.203125 Z M 6.046875 0.203125 "/></g></g></g><g fill="rgb(0%, 0%, 0%)" fill-opacity="1"><g transform="translate(297.036126, 76.698015)"><g><path d="M 1.921875 0 C 1.796875 0 1.6875 -0.046875 1.59375 -0.140625 C 1.5 -0.234375 1.453125 -0.347656 1.453125 -0.484375 L 1.453125 -13.25 C 1.453125 -13.394531 1.5 -13.515625 1.59375 -13.609375 C 1.6875 -13.703125 1.796875 -13.75 1.921875 -13.75 L 10.84375 -13.75 C 10.988281 -13.75 11.101562 -13.703125 11.1875 -13.609375 C 11.28125 -13.515625 11.328125 -13.394531 11.328125 -13.25 L 11.328125 -11.6875 C 11.328125 -11.539062 11.28125 -11.421875 11.1875 -11.328125 C 11.101562 -11.234375 10.988281 -11.1875 10.84375 -11.1875 L 4.484375 -11.1875 L 4.484375 -8.125 L 10.40625 -8.125 C 10.550781 -8.125 10.671875 -8.078125 10.765625 -7.984375 C 10.859375 -7.898438 10.90625 -7.785156 10.90625 -7.640625 L 10.90625 -6.1875 C 10.90625 -6.050781 10.859375 -5.9375 10.765625 -5.84375 C 10.671875 -5.75 10.550781 -5.703125 10.40625 -5.703125 L 4.484375 -5.703125 L 4.484375 -2.546875 L 11 -2.546875 C 11.144531 -2.546875 11.257812 -2.5 11.34375 -2.40625 C 11.4375 -2.320312 11.484375 -2.207031 11.484375 -2.0625 L 11.484375 -0.484375 C 11.484375 -0.347656 11.4375 -0.234375 11.34375 -0.140625 C 11.257812 -0.046875 11.144531 0 11 0 Z M 1.921875 0 "/></g></g></g><g fill="rgb(0%, 0%, 0%)" fill-opacity="1"><g transform="translate(317.29109, 76.698015)"><g><path d="M 6.90625 0.203125 C 5.695312 0.203125 4.660156 -0.00390625 3.796875 -0.421875 C 2.929688 -0.835938 2.257812 -1.441406 1.78125 -2.234375 C 1.3125 -3.023438 1.050781 -3.988281 1 -5.125 C 0.988281 -5.664062 0.984375 -6.242188 0.984375 -6.859375 C 0.984375 -7.472656 0.988281 -8.0625 1 -8.625 C 1.050781 -9.75 1.316406 -10.707031 1.796875 -11.5 C 2.273438 -12.289062 2.945312 -12.894531 3.8125 -13.3125 C 4.675781 -13.726562 5.707031 -13.9375 6.90625 -13.9375 C 7.800781 -13.9375 8.601562 -13.828125 9.3125 -13.609375 C 10.03125 -13.390625 10.648438 -13.066406 11.171875 -12.640625 C 11.703125 -12.222656 12.113281 -11.734375 12.40625 -11.171875 C 12.695312 -10.609375 12.847656 -9.984375 12.859375 -9.296875 C 12.878906 -9.171875 12.84375 -9.066406 12.75 -8.984375 C 12.664062 -8.910156 12.566406 -8.875 12.453125 -8.875 L 10.1875 -8.875 C 10.03125 -8.875 9.90625 -8.910156 9.8125 -8.984375 C 9.726562 -9.054688 9.660156 -9.1875 9.609375 -9.375 C 9.410156 -10.15625 9.082031 -10.6875 8.625 -10.96875 C 8.164062 -11.25 7.59375 -11.390625 6.90625 -11.390625 C 6.113281 -11.390625 5.476562 -11.164062 5 -10.71875 C 4.53125 -10.28125 4.28125 -9.550781 4.25 -8.53125 C 4.207031 -7.445312 4.207031 -6.34375 4.25 -5.21875 C 4.28125 -4.195312 4.53125 -3.460938 5 -3.015625 C 5.476562 -2.578125 6.113281 -2.359375 6.90625 -2.359375 C 7.59375 -2.359375 8.164062 -2.5 8.625 -2.78125 C 9.09375 -3.070312 9.421875 -3.601562 9.609375 -4.375 C 9.660156 -4.5625 9.726562 -4.691406 9.8125 -4.765625 C 9.90625 -4.835938 10.03125 -4.875 10.1875 -4.875 L 12.453125 -4.875 C 12.566406 -4.875 12.664062 -4.832031 12.75 -4.75 C 12.84375 -4.675781 12.878906 -4.578125 12.859375 -4.453125 C 12.847656 -3.765625 12.695312 -3.140625 12.40625 -2.578125 C 12.113281 -2.015625 11.703125 -1.519531 11.171875 -1.09375 C 10.648438 -0.675781 10.03125 -0.351562 9.3125 -0.125 C 8.601562 0.09375 7.800781 0.203125 6.90625 0.203125 Z M 6.90625 0.203125 "/></g></g></g><g fill="rgb(0%, 0%, 0%)" fill-opacity="1"><g transform="translate(338.763859, 76.698015)"><g><path d="M 4.96875 0 C 4.820312 0 4.703125 -0.046875 4.609375 -0.140625 C 4.523438 -0.234375 4.484375 -0.347656 4.484375 -0.484375 L 4.484375 -11 L 0.90625 -11 C 0.769531 -11 0.65625 -11.046875 0.5625 -11.140625 C 0.476562 -11.234375 0.4375 -11.347656 0.4375 -11.484375 L 0.4375 -13.25 C 0.4375 -13.394531 0.476562 -13.515625 0.5625 -13.609375 C 0.65625 -13.703125 0.769531 -13.75 0.90625 -13.75 L 11.1875 -13.75 C 11.332031 -13.75 11.453125 -13.703125 11.546875 -13.609375 C 11.640625 -13.515625 11.6875 -13.394531 11.6875 -13.25 L 11.6875 -11.484375 C 11.6875 -11.347656 11.640625 -11.234375 11.546875 -11.140625 C 11.453125 -11.046875 11.332031 -11 11.1875 -11 L 7.640625 -11 L 7.640625 -0.484375 C 7.640625 -0.347656 7.59375 -0.234375 7.5 -0.140625 C 7.40625 -0.046875 7.289062 0 7.15625 0 Z M 4.96875 0 "/></g></g></g></svg>